<svg width="195" height="195" viewBox="0 0 195 195" fill="none" xmlns="http://www.w3.org/2000/svg">
<path d="M115.425 177.018L115.074 177.095C71.2631 186.767 27.748 158.981 18.0736 115.157L17.9962 114.806C8.32169 70.9824 36.0948 27.4592 79.9059 17.7875L80.2563 17.7102C124.067 8.03856 167.583 35.8245 177.257 79.6485L177.334 79.9991C187.009 123.823 159.236 167.346 115.425 177.018ZM81.0963 23.1799C40.2555 32.1958 14.3684 72.7636 23.387 113.616L23.4644 113.967C32.4829 154.82 73.043 180.719 113.884 171.703L114.234 171.626C155.075 162.61 180.962 122.042 171.944 81.1892L171.866 80.8386C162.848 39.9857 122.288 14.0867 81.4467 23.1026L81.0963 23.1799Z" fill="#EA4C89"/>
<path d="M146.38 88.7496C146.353 88.5801 146.321 88.4064 146.288 88.2326L145.907 86.0716L145.821 86.0679C143.168 74.7891 136.769 64.9592 127.606 58.0014L127.672 57.8907L124.861 56.04C113.585 48.627 100.13 46.1456 86.9659 49.0517C80.2059 50.5441 74.0057 53.3435 68.4896 57.3719L68.4327 57.3449L66.6655 58.7642C64.3271 60.6434 62.183 62.7115 60.2501 64.9422C58.9619 66.4311 57.767 67.9843 56.6666 69.6071C56.2574 70.212 55.8668 70.8242 55.484 71.446C50.2372 79.9729 47.6119 90.0023 48.1976 100.211L48.3903 103.516L48.5094 103.518C48.7002 105.048 48.9592 106.58 49.2925 108.09C52.1221 120.908 59.9456 132.069 70.9368 139.115L70.9145 139.193L73.3295 140.555C83.9652 146.554 96.3897 148.414 108.314 145.782C109.161 145.595 109.997 145.388 110.823 145.16C116.623 143.569 122.001 140.968 126.84 137.428C126.84 137.428 126.845 137.427 126.85 137.426L128.744 136.041L128.73 135.976C142.616 124.739 149.521 106.515 146.404 88.8856C146.403 88.8802 146.402 88.8748 146.4 88.8694C146.399 88.864 146.397 88.8532 146.396 88.8478L146.379 88.7724L146.38 88.7496ZM139.879 92.9556C139.896 93.1329 139.912 93.3103 139.929 93.4876C139.957 93.7926 139.984 94.0974 140.006 94.3981C140.02 94.5928 140.03 94.7887 140.039 94.9846C140.056 95.2691 140.069 95.5548 140.081 95.8406C140.087 96.0484 140.092 96.2508 140.093 96.4598C140.098 96.736 140.107 97.0109 140.105 97.2828C140.106 97.4919 140.102 97.7021 140.097 97.9124C140.095 98.1843 140.086 98.452 140.078 98.7197C140.068 98.9311 140.059 99.148 140.049 99.3594C140.034 99.6229 140.02 99.8918 140.004 100.155C139.989 100.368 139.975 100.586 139.954 100.8C139.934 101.065 139.906 101.325 139.886 101.59C139.865 101.803 139.839 102.018 139.813 102.233C139.78 102.495 139.748 102.757 139.715 103.019C139.688 103.228 139.656 103.444 139.624 103.655C139.586 103.918 139.541 104.177 139.498 104.441C139.465 104.652 139.426 104.858 139.388 105.07C139.338 105.33 139.288 105.59 139.232 105.851C139.188 106.059 139.148 106.265 139.103 106.468C139.042 106.73 138.981 106.992 138.92 107.255C138.874 107.457 138.822 107.655 138.771 107.859C138.705 108.122 138.628 108.388 138.556 108.652C138.502 108.845 138.449 109.038 138.395 109.231C138.314 109.503 138.228 109.777 138.141 110.05C138.085 110.232 138.029 110.415 137.972 110.591C137.874 110.89 137.771 111.19 137.666 111.484C137.614 111.632 137.563 111.784 137.511 111.937C137.364 112.343 137.209 112.744 137.049 113.147C137.036 113.19 137.016 113.228 137.003 113.271C136.823 113.712 136.637 114.149 136.446 114.587C136.389 114.713 136.326 114.84 136.269 114.965C136.133 115.272 135.991 115.575 135.849 115.878C135.772 116.042 135.688 116.202 135.606 116.367C135.477 116.627 135.344 116.894 135.208 117.151C135.116 117.324 135.019 117.498 134.927 117.671C134.794 117.915 134.662 118.159 134.524 118.404C134.422 118.585 134.32 118.76 134.217 118.936C134.082 119.169 133.942 119.404 133.801 119.638C133.693 119.815 133.58 119.993 133.466 120.17C133.324 120.394 133.182 120.623 133.034 120.848C132.915 121.027 132.8 121.2 132.681 121.379C132.532 121.598 132.383 121.818 132.232 122.032C132.107 122.207 131.981 122.381 131.856 122.556C131.7 122.772 131.543 122.981 131.38 123.193C131.248 123.363 131.122 123.533 130.984 123.704C130.821 123.91 130.658 124.121 130.488 124.323C130.355 124.488 130.216 124.654 130.077 124.82C129.907 125.022 129.731 125.225 129.561 125.427C129.421 125.587 129.276 125.75 129.137 125.91C128.96 126.108 128.777 126.306 128.594 126.5C128.447 126.656 128.307 126.812 128.159 126.963C127.97 127.158 127.776 127.353 127.586 127.542C127.437 127.688 127.29 127.839 127.141 127.985C127.002 128.123 126.855 128.252 126.71 128.391C123.676 118.362 119.059 108.302 113.188 98.9441C121.728 94.9381 130.835 92.8598 139.873 92.8778C139.879 92.9047 139.885 92.9316 139.885 92.9544L139.879 92.9556ZM109.239 93.041C107.384 90.425 105.457 87.8927 103.453 85.4735C111.571 79.3777 118.542 72.0536 123.89 64.0132C130.974 69.5693 136.059 77.1614 138.504 85.8565C128.545 86.0475 118.56 88.5006 109.234 93.0421L109.239 93.041ZM55.1622 96.2641C55.1793 95.5986 55.2125 94.9296 55.2631 94.2625C55.2704 94.1421 55.282 94.0152 55.2893 93.8948C55.3435 93.2438 55.4096 92.5958 55.4931 91.9496C55.4997 91.9029 55.5022 91.8628 55.5089 91.8161C55.5191 91.7346 55.5294 91.6532 55.5397 91.5718C55.6298 90.9298 55.733 90.2963 55.8471 89.6603C55.8658 89.5657 55.8802 89.4777 55.8989 89.3831C55.9008 89.3658 55.908 89.3471 55.9086 89.3244C56.031 88.6753 56.172 88.0334 56.3303 87.3933C56.3532 87.2921 56.3815 87.1898 56.4032 87.0832C56.5657 86.4365 56.7414 85.7983 56.9345 85.1619C56.9628 85.0595 56.9923 84.9625 57.0271 84.8644C57.2184 84.2453 57.427 83.6281 57.6476 83.0139C57.6722 82.9462 57.6968 82.8786 57.7215 82.8109C57.7347 82.7684 57.7533 82.7247 57.7719 82.681C57.9979 82.0656 58.2424 81.4574 58.4947 80.8588C58.5392 80.7529 58.5878 80.6403 58.6323 80.5344C58.8942 79.928 59.1734 79.3235 59.4658 78.7273C59.5127 78.6322 59.5649 78.5358 59.6117 78.4407C59.9095 77.8433 60.2193 77.249 60.5476 76.6619C60.5873 76.5853 60.6335 76.5129 60.6731 76.4363C61.0098 75.836 61.3663 75.2484 61.7347 74.6637C61.7768 74.5979 61.8146 74.5386 61.8566 74.4728C62.219 73.9121 62.588 73.3556 62.9767 72.8117C63.0115 72.7645 63.0451 72.7118 63.0799 72.6646C63.1021 72.637 63.1189 72.6107 63.1411 72.5832C63.5311 72.0447 63.9341 71.5145 64.3438 70.9887C64.4104 70.9061 64.4758 70.8181 64.5424 70.7356C64.964 70.2127 65.3947 69.7048 65.8426 69.1988C65.92 69.1138 65.9962 69.0235 66.0789 68.9374C66.5281 68.4367 66.9904 67.9444 67.4671 67.4659C67.5415 67.3929 67.62 67.3134 67.6944 67.2405C68.186 66.753 68.6855 66.2751 69.2046 65.8099C69.243 65.7788 69.2802 65.7423 69.3185 65.7112C77.5898 70.2191 85.6479 76.5272 92.8964 84.162C81.0926 91.4899 67.8658 95.7783 55.153 96.4018C55.1543 96.3563 55.1543 96.3054 55.1544 96.2545L55.1622 96.2641ZM90.492 55.5232C90.7154 55.4852 90.9412 55.458 91.1646 55.42C91.618 55.3482 92.0672 55.283 92.5176 55.2231C92.7823 55.193 93.0482 55.1682 93.3129 55.138C93.7214 55.0931 94.131 55.0536 94.543 55.0249C94.8263 55.0019 95.1065 54.9909 95.3856 54.9746C95.7826 54.9548 96.1743 54.9362 96.5671 54.923C96.8539 54.9162 97.1408 54.9095 97.4288 54.9081C97.8186 54.9069 98.2085 54.9056 98.5953 54.9164C98.8845 54.9204 99.1695 54.931 99.4545 54.9416C99.8425 54.9577 100.232 54.9792 100.622 55.0062C100.903 55.0233 101.185 55.0459 101.467 55.0685C101.865 55.105 102.264 55.1469 102.665 55.1942C102.932 55.2258 103.198 55.2519 103.466 55.2888C103.898 55.3517 104.332 55.42 104.761 55.4949C104.99 55.5348 105.217 55.5639 105.442 55.6104C106.062 55.7281 106.678 55.8577 107.292 55.9994C107.352 56.0144 107.417 56.0283 107.477 56.0434C108.097 56.1892 108.716 56.3524 109.325 56.5288C109.549 56.5926 109.768 56.663 109.987 56.7334C110.405 56.8616 110.824 56.9898 111.246 57.1342C111.502 57.219 111.75 57.317 112.002 57.4085C112.382 57.545 112.757 57.6827 113.135 57.8311C113.401 57.9364 113.662 58.0428 113.924 58.1546C114.286 58.3066 114.647 58.4587 115.006 58.6227C115.269 58.7399 115.528 58.8636 115.793 58.9862C116.147 59.1568 116.501 59.3275 116.851 59.5047C117.106 59.635 117.362 59.7708 117.619 59.9065C117.753 59.9786 117.89 60.0614 118.025 60.1335C113.024 67.6504 106.454 74.4846 98.7921 80.1629C91.6467 72.4828 83.7044 66.0078 75.4744 61.1232C79.4585 58.6829 83.8093 56.9306 88.467 55.9024C89.1408 55.7537 89.8129 55.6223 90.4885 55.5071L90.492 55.5232ZM55.579 103.428C59.8955 103.21 64.2585 102.614 68.6035 101.655C78.6197 99.4441 88.5575 95.3162 97.6431 89.5045C99.5013 91.724 101.301 94.0355 103.029 96.4363C102.495 96.7578 101.967 97.0781 101.442 97.4146C88.1247 105.981 78.2168 118.184 73.121 132.107C64.5327 126.034 58.4364 116.935 56.1485 106.571C55.9187 105.53 55.7321 104.48 55.579 103.428ZM104.949 139.269C104.747 139.302 104.544 139.33 104.342 139.364C103.927 139.432 103.517 139.495 103.099 139.547C102.857 139.578 102.619 139.602 102.376 139.628C102.001 139.671 101.62 139.71 101.243 139.742C100.987 139.765 100.731 139.782 100.475 139.799C100.113 139.822 99.7502 139.846 99.3855 139.858C99.1226 139.871 98.8586 139.878 98.5987 139.879C98.2382 139.885 97.8831 139.89 97.5268 139.89C97.2615 139.892 97.0005 139.887 96.7382 139.877C96.3807 139.871 96.0209 139.855 95.6676 139.842C95.4053 139.832 95.1472 139.815 94.8892 139.799C94.5281 139.777 94.1647 139.744 93.8013 139.711C93.5474 139.688 93.3001 139.669 93.0451 139.641C92.6685 139.599 92.2895 139.547 91.9171 139.499C91.6837 139.466 91.446 139.439 91.2113 139.401C90.8018 139.338 90.3899 139.265 89.9768 139.187C89.7823 139.151 89.5889 139.12 89.3943 139.084C88.8029 138.965 88.2144 138.835 87.629 138.693C87.6182 138.695 87.6051 138.687 87.5931 138.684C86.9903 138.54 86.3947 138.377 85.7967 138.204C85.6213 138.152 85.4436 138.09 85.2628 138.039C84.851 137.915 84.438 137.786 84.0292 137.65C83.8089 137.574 83.5875 137.493 83.366 137.411C83.0039 137.282 82.6418 137.153 82.2827 137.012C82.0481 136.922 81.8111 136.822 81.5807 136.725C81.239 136.586 80.9026 136.445 80.5639 136.294C80.3203 136.189 80.081 136.078 79.8416 135.967C79.6591 135.883 79.4754 135.793 79.2917 135.704C83.712 122.716 92.8482 111.295 105.249 103.315C105.813 102.953 106.392 102.605 106.971 102.256C113.165 112.03 117.9 122.617 120.749 133.067C120.201 133.425 119.643 133.769 119.082 134.096C118.933 134.186 118.775 134.266 118.624 134.35C118.182 134.6 117.734 134.852 117.283 135.087C117.06 135.204 116.829 135.312 116.601 135.43C116.214 135.623 115.826 135.81 115.431 135.994C115.185 136.11 114.932 136.217 114.679 136.329C114.298 136.498 113.915 136.656 113.526 136.816C113.271 136.917 113.011 137.02 112.75 137.117C112.354 137.267 111.956 137.411 111.55 137.546C111.299 137.635 111.051 137.718 110.798 137.803C110.355 137.946 109.909 138.078 109.463 138.205C109.245 138.27 109.033 138.334 108.814 138.393C108.148 138.574 107.473 138.746 106.794 138.896C106.179 139.031 105.567 139.15 104.952 139.257L104.949 139.269Z" fill="#EA4C89"/>
</svg>
