<svg width="187" height="189" viewBox="0 0 187 189" fill="none" xmlns="http://www.w3.org/2000/svg">
<path d="M106.974 176.848L106.624 176.925C62.8124 186.597 19.2973 158.811 9.62284 114.987L9.54548 114.637C-0.128996 70.8126 27.6441 27.2893 71.4552 17.6177L71.8056 17.5403C115.617 7.8687 159.132 35.6546 168.806 79.4787L168.884 79.8291C178.558 123.653 150.785 167.176 106.974 176.848ZM72.6456 23.0101C31.8048 32.026 5.91774 72.5937 14.9363 113.447L15.0137 113.797C24.0322 154.65 64.5923 180.549 105.433 171.533L105.784 171.456C146.624 162.44 172.511 121.872 163.493 81.0192L163.416 80.6687C154.397 39.8159 113.837 13.9168 72.996 22.9327L72.6456 23.0101Z" fill="#1877F2"/>
<path d="M95.9856 77.0055L99.6866 93.7704L120.42 89.1934L122.122 112.502L104.672 116.354L116.158 168.385C112.767 169.643 109.243 170.686 105.61 171.489C101.416 172.414 97.2234 172.989 93.0698 173.228L81.6371 121.439L62.5159 125.66L57.5304 103.077L76.6517 98.8555L72.1234 78.3429C69.314 65.6168 77.3482 53.0192 90.0759 50.2094L90.0783 50.2202C90.116 50.2118 90.146 50.194 90.1837 50.1856L110.809 45.6325L115.121 65.1637L101.644 68.1389C97.6382 69.0231 95.1054 72.9923 95.9898 76.9989L95.9856 77.0055Z" fill="#1877F2"/>
</svg>
