<svg width="196" height="195" viewBox="0 0 196 195" fill="none" xmlns="http://www.w3.org/2000/svg">
<path d="M115.873 177.195L115.522 177.273C71.7113 186.944 28.1962 159.158 18.5217 115.334L18.4443 114.984C8.76987 71.1597 36.5429 27.6365 80.3541 17.9648L80.7045 17.8875C124.516 8.21587 168.031 36.0018 177.705 79.8258L177.783 80.1763C187.457 124 159.684 167.524 115.873 177.195ZM81.5445 23.3572C40.7037 32.3732 14.8166 72.9409 23.8352 113.794L23.9125 114.144C32.9311 154.997 73.4912 180.896 114.332 171.88L114.682 171.803C155.523 162.787 181.41 122.219 172.392 81.3663L172.314 81.0159C163.296 40.163 122.736 14.264 81.8949 23.2799L81.5445 23.3572Z" fill="url(#paint0_linear_1_824)"/>
<path d="M111.846 46.6802L64.2341 57.1908C51.0805 60.0946 42.7427 73.1608 45.6473 86.3182L55.2659 129.889C58.1705 143.046 71.2342 151.388 84.3878 148.484L131.999 137.974C145.153 135.07 153.491 122.004 150.586 108.846L140.968 65.2756C138.063 52.1181 124.999 43.7765 111.846 46.6802ZM54.0624 84.4605C52.1827 75.9459 57.5803 67.4875 66.0924 65.6084L113.704 55.0977C122.216 53.2186 130.673 58.6186 132.553 67.1333L142.171 110.704C144.051 119.219 138.653 127.677 130.141 129.556L82.5296 140.067C74.0175 141.946 65.5606 136.546 63.6809 128.031L54.0624 84.4605Z" fill="url(#paint1_linear_1_824)"/>
<path d="M103.015 119.772C115.247 117.072 123.007 104.919 120.304 92.6785C117.602 80.4378 105.453 72.6802 93.216 75.3817C80.9788 78.0831 73.2248 90.2344 75.9271 102.475C78.6293 114.716 90.7783 122.473 103.015 119.772ZM95.0754 83.8046C102.671 82.1278 110.213 86.9437 111.89 94.5416C113.568 102.14 108.754 109.683 101.158 111.36C93.5627 113.037 86.0206 108.221 84.3433 100.623C82.6661 93.0249 87.4797 85.4814 95.0754 83.8046Z" fill="url(#paint2_linear_1_824)"/>
<path d="M118.25 73.6159C121.544 72.8888 123.637 69.6161 122.908 66.316C122.18 63.0158 118.909 60.9273 115.61 61.6556C112.311 62.3839 110.223 65.6554 110.952 68.9555C111.68 72.2557 114.951 74.3442 118.25 73.6159Z" fill="url(#paint3_linear_1_824)"/>
<defs>
<linearGradient id="paint0_linear_1_824" x1="54.2213" y1="166.363" x2="142.046" y2="28.8224" gradientUnits="userSpaceOnUse">
<stop stop-color="#FAAD4F"/>
<stop offset="0.35" stop-color="#DD2A7B"/>
<stop offset="0.62" stop-color="#9537B0"/>
<stop offset="1" stop-color="#515BD4"/>
</linearGradient>
<linearGradient id="paint1_linear_1_824" x1="67.2174" y1="145.997" x2="129.039" y2="49.1864" gradientUnits="userSpaceOnUse">
<stop stop-color="#FAAD4F"/>
<stop offset="0.35" stop-color="#DD2A7B"/>
<stop offset="0.62" stop-color="#9537B0"/>
<stop offset="1" stop-color="#515BD4"/>
</linearGradient>
<linearGradient id="paint2_linear_1_824" x1="85.8979" y1="116.731" x2="110.342" y2="78.4422" gradientUnits="userSpaceOnUse">
<stop stop-color="#FAAD4F"/>
<stop offset="0.35" stop-color="#DD2A7B"/>
<stop offset="0.62" stop-color="#9537B0"/>
<stop offset="1" stop-color="#515BD4"/>
</linearGradient>
<linearGradient id="paint3_linear_1_824" x1="113.637" y1="72.7964" x2="120.226" y2="62.477" gradientUnits="userSpaceOnUse">
<stop stop-color="#FAAD4F"/>
<stop offset="0.35" stop-color="#DD2A7B"/>
<stop offset="0.62" stop-color="#9537B0"/>
<stop offset="1" stop-color="#515BD4"/>
</linearGradient>
</defs>
</svg>
