<svg width="195" height="196" viewBox="0 0 195 196" fill="none" xmlns="http://www.w3.org/2000/svg">
<path d="M115.082 177.756L114.731 177.833C70.9203 187.505 27.4052 159.719 17.7307 115.895L17.6533 115.544C7.97885 71.7202 35.7519 28.1969 79.5631 18.5253L79.9134 18.4479C123.725 8.7763 167.24 36.5622 176.914 80.3863L176.992 80.7367C186.666 124.561 158.893 168.084 115.082 177.756ZM80.7535 23.9177C39.9127 32.9336 14.0256 73.5013 23.0441 114.354L23.1215 114.705C32.1401 155.557 72.7002 181.457 113.541 172.441L113.891 172.363C154.732 163.347 180.619 122.78 171.601 81.9268L171.523 81.5763C162.505 40.7235 121.945 14.8244 81.1039 23.8403L80.7535 23.9177Z" fill="#383D38"/>
<path d="M42.2984 66.1233L88.2563 105.743L61.0703 152.208L69.1081 150.433L92.9127 109.754L125.625 137.957L152.973 131.92L104.431 90.0706L129.737 46.8205L121.7 48.5949L99.7802 86.0586L69.6514 60.0849L42.3037 66.1221L42.2984 66.1233ZM55.4221 69.4355L67.9827 66.6627L139.838 128.61L127.278 131.383L55.4221 69.4355Z" fill="#383D38"/>
</svg>
