<svg width="195" height="195" viewBox="0 0 195 195" fill="none" xmlns="http://www.w3.org/2000/svg">
<path d="M115.181 177.037L114.83 177.114C71.0191 186.786 27.504 159 17.8296 115.176L17.7522 114.826C8.07773 71.0016 35.8508 27.4783 79.662 17.8067L80.0124 17.7293C123.824 8.05771 167.339 35.8436 177.013 79.6677L177.091 80.0181C186.765 123.842 158.992 167.365 115.181 177.037ZM80.8524 23.1991C40.0116 32.215 14.1245 72.7827 23.143 113.636L23.2204 113.986C32.2389 154.839 72.7991 180.738 113.64 171.722L113.99 171.645C154.831 162.629 180.718 122.061 171.7 81.2082L171.622 80.8577C162.604 40.0049 122.044 14.1058 81.2028 23.1217L80.8524 23.1991Z" fill="#00E510"/>
<path d="M117.391 116.621C97.698 120.969 78.1374 108.474 73.7834 88.7765C72.6865 83.782 75.8548 78.8242 80.8359 77.7246C81.3481 77.6115 81.8643 77.5428 82.3685 77.522C83.4752 77.4643 84.5685 77.6019 85.6213 77.9406C85.7739 77.9918 85.8941 78.1009 85.949 78.2471L90.9261 90.9075C90.9864 91.0526 90.9724 91.2196 90.895 91.3555C90.0277 92.8815 88.7638 94.122 87.2315 94.9409L86.4933 95.3358L86.9576 96.0306C91.1517 102.276 97.8239 106.531 105.26 107.717L106.087 107.851L106.134 107.015C106.232 105.28 106.824 103.611 107.843 102.182C107.915 102.075 108.03 102.005 108.154 101.977C108.181 101.972 108.208 101.966 108.241 101.964L121.817 101.15C121.979 101.142 122.127 101.2 122.238 101.317C122.983 102.131 123.569 103.07 123.988 104.098C124.179 104.553 124.328 105.046 124.443 105.569C125.544 110.557 122.381 115.514 117.391 116.621Z" fill="#00E510"/>
<path d="M146.389 82.0794C142.677 70.3103 134.72 60.3889 123.985 54.1458C113.186 47.8661 100.537 45.8854 88.3592 48.5738C61.6316 54.4741 44.6872 81.0278 50.5893 107.763C52.5701 116.736 56.9741 124.931 63.3396 131.511L57.999 156.951L90.6622 146.002C97.0051 147.101 103.428 146.95 109.762 145.552C111.428 145.184 113.118 144.721 114.793 144.164C116.267 143.669 117.74 143.095 119.172 142.462C140.556 132.997 152.509 109.519 147.589 86.6213L147.532 86.3625C147.211 84.9065 146.825 83.4648 146.385 82.086L146.389 82.0794ZM89.7091 135.564L71.6381 141.623L74.4603 128.157L73.0278 126.918C72.9231 126.828 72.8185 126.738 72.6994 126.634C66.4386 121.066 62.1764 113.796 60.3693 105.61C55.6577 84.2668 69.183 63.0713 90.5198 58.361C110.509 53.9483 130.896 65.8081 136.926 85.3617C137.248 86.4103 137.533 87.4727 137.767 88.5297C137.833 88.8316 137.893 89.1294 137.958 89.4487C141.49 107.393 132.368 125.309 115.776 133.021C114.51 133.612 113.196 134.14 111.87 134.585C110.493 135.059 109.061 135.46 107.621 135.777C102.495 136.909 97.2946 137.017 92.1551 136.093C91.5857 135.998 91.0236 135.884 90.4926 135.758L89.7169 135.573L89.7091 135.564Z" fill="#00E510"/>
</svg>
